name rise42.5664peak47.7979fall81.9185.mot
datacolumns 19
datarows 11
range 5.36831100000000 5.38498200000000
endheader
time	ground_force1_vx	ground_force1_vy	ground_force1_vz	ground_force1_px	ground_force1_py	ground_force1_pz	ground_force2_vx	ground_force2_vy	ground_force2_vz	ground_force2_px	ground_force2_py	ground_force2_pz	ground_torque1_x	ground_torque1_y	ground_torque1_z	ground_torque2_x	ground_torque2_y	ground_torque2_z	
5.36831100000000	-34.75553100000000	792.31239400000004	54.07912900000000	0.08590900000000	0.00000000000000	0.09100600000000	-0.89727800000000	3.75744200000000	0.08299700000000	0.00000000000000	0.00000000000000	0.00000000000000	0.00000000000000	16.31618400000000	0.00000000000000	0.00000000000000	-0.04291500000000	0.00000000000000	
5.36998200000000	-35.38695500000000	790.94860200000005	54.04421900000000	0.08502400000000	0.00000000000000	0.09095300000000	-1.44149800000000	7.29203800000000	0.15882300000000	0.00000000000000	0.00000000000000	0.00000000000000	0.00000000000000	16.26425200000000	0.00000000000000	0.00000000000000	-0.05644300000000	0.00000000000000	
5.37164200000000	-36.03379700000000	789.49546099999998	53.99032800000000	0.08413800000000	0.00000000000000	0.09089900000000	-2.05762500000000	11.56956500000000	0.24964900000000	0.00000000000000	0.00000000000000	0.00000000000000	0.00000000000000	16.21256000000000	0.00000000000000	0.00000000000000	-0.06924200000000	0.00000000000000	
5.37331600000000	-36.69569500000000	787.94943400000000	53.91669300000000	0.08324800000000	0.00000000000000	0.09084200000000	-2.72694600000000	16.54645000000000	0.35408600000000	0.00000000000000	0.00000000000000	0.00000000000000	0.00000000000000	16.16113900000000	0.00000000000000	0.00000000000000	-0.08020300000000	0.00000000000000	
5.37498200000000	-37.37220700000000	786.30691100000001	53.82257400000000	0.08235700000000	0.00000000000000	0.09078300000000	-3.42598200000000	22.14652500000000	0.46996200000000	0.00000000000000	0.00000000000000	0.00000000000000	0.00000000000000	16.11001800000000	0.00000000000000	0.00000000000000	-0.08814900000000	0.00000000000000	
5.37664900000000	-38.06281700000000	784.56421799999998	53.70725900000000	0.08146400000000	0.00000000000000	0.09072200000000	-4.12799000000000	28.26678200000000	0.59444400000000	0.29378000000000	0.00000000000000	-0.09621500000000	0.00000000000000	16.05921600000000	0.00000000000000	0.00000000000000	-0.31444600000000	0.00000000000000	
5.37831400000000	-38.76693100000000	782.71761600000002	53.57006700000000	0.08056900000000	0.00000000000000	0.09065900000000	-4.80487000000000	34.78602200000000	0.72422300000000	0.29866800000000	0.00000000000000	-0.09602600000000	0.00000000000000	16.00874600000000	0.00000000000000	0.00000000000000	-0.33549000000000	0.00000000000000	
5.37997700000000	-39.48387700000000	780.76331900000002	53.41034900000000	0.07967300000000	0.00000000000000	0.09059300000000	-5.42923400000000	41.57526800000000	0.85575200000000	0.30300200000000	0.00000000000000	-0.09585600000000	0.00000000000000	15.95861200000000	0.00000000000000	0.00000000000000	-0.34384900000000	0.00000000000000	
5.38164200000000	-40.21290200000000	778.69749300000001	53.22749200000000	0.07877600000000	0.00000000000000	0.09052600000000	-5.97635900000000	48.50844400000000	0.98547700000000	0.30686800000000	0.00000000000000	-0.09570100000000	0.00000000000000	15.90881100000000	0.00000000000000	0.00000000000000	-0.33773700000000	0.00000000000000	
5.38332400000000	-40.95317600000000	776.51627299999996	53.02092100000000	0.07787700000000	0.00000000000000	0.09045500000000	-6.42576400000000	55.47190600000000	1.11005500000000	0.31033400000000	0.00000000000000	-0.09556100000000	0.00000000000000	15.85933100000000	0.00000000000000	0.00000000000000	-0.31602100000000	0.00000000000000	
5.38498200000000	-41.70379000000000	774.21576500000003	52.79010200000000	0.07697900000000	0.00000000000000	0.09038300000000	-6.76227500000000	62.37181000000000	1.22652700000000	0.31345600000000	0.00000000000000	-0.09543400000000	0.00000000000000	15.81015200000000	0.00000000000000	0.00000000000000	-0.27827200000000	0.00000000000000	
